<svg xmlns="http://www.w3.org/2000/svg" viewBox="0 0 720 249" width="720" height="249">
  <path 
    d="M 162 58 L 160 60 L 160 68 L 159 69 L 155 65 L 154 65 L 152 63 L 147 63 L 147 68 
       L 148 68 L 151 71 L 152 71 L 156 75 L 157 75 L 160 78 L 161 78 L 162 79 L 161 80 
       L 129 80 L 129 112 L 130 113 L 145 113 L 146 112 L 147 112 L 149 110 L 151 110 
       L 154 113 L 154 116 L 152 118 L 148 118 L 147 117 L 146 117 L 145 116 L 130 116 
       L 129 117 L 129 128 L 146 128 L 148 126 L 151 126 L 153 128 L 153 131 L 151 133 
       L 147 133 L 145 131 L 129 131 L 129 136 L 130 137 L 130 140 L 131 141 L 131 142 
       L 133 144 L 133 145 L 134 146 L 134 147 L 137 150 L 137 151 L 138 151 L 144 157 
       L 145 157 L 146 158 L 147 158 L 148 159 L 150 159 L 152 161 L 156 161 L 157 162 
       L 170 162 L 171 161 L 174 161 L 176 159 L 178 159 L 179 158 L 180 158 L 181 157 
       L 182 157 L 185 154 L 186 154 L 189 151 L 189 150 L 193 146 L 193 145 L 194 144 
       L 194 143 L 195 142 L 195 141 L 196 140 L 196 138 L 197 137 L 197 130 L 198 129 
       L 198 81 L 197 80 L 165 80 L 164 79 L 166 77 L 167 77 L 172 72 L 173 72 L 179 66 
       L 179 63 L 173 63 L 169 67 L 168 67 L 167 68 L 166 67 L 166 60 L 164 58 Z" 
    fill="orange"
    stroke="#d58c00"
    stroke-width="1"
    stroke-linejoin="round"
    stroke-linecap="round"
  />
</svg>