<svg xmlns="http://www.w3.org/2000/svg" viewBox="0 0 120 120" width="120" height="120">
  <!-- 保持原有萝卜形状和颜色，只调整位置和尺寸 -->
  <path d="M 40 10 L 38 12 L 38 20 L 37 21 L 33 17 L 32 17 L 30 15 L 25 15 L 25 20 L 26 20 L 29 23 L 30 23 L 34 27 L 35 27 L 38 30 L 39 30 L 40 31 L 39 32 L 7 32 L 7 64 L 8 65 L 23 65 L 24 64 L 25 64 L 27 62 L 29 62 L 32 65 L 32 68 L 30 70 L 26 70 L 25 69 L 24 69 L 23 68 L 8 68 L 7 69 L 7 80 L 24 80 L 26 78 L 29 78 L 31 80 L 31 83 L 29 85 L 25 85 L 23 83 L 7 83 L 7 88 L 8 89 L 8 92 L 9 93 L 9 94 L 11 96 L 11 97 L 12 98 L 12 99 L 15 102 L 15 103 L 16 103 L 22 109 L 23 109 L 24 110 L 25 110 L 26 111 L 28 111 L 30 113 L 34 113 L 35 114 L 48 114 L 49 113 L 52 113 L 54 111 L 56 111 L 57 110 L 58 110 L 59 109 L 60 109 L 63 106 L 64 106 L 67 103 L 67 102 L 71 98 L 71 97 L 72 96 L 72 95 L 73 94 L 73 93 L 74 92 L 74 90 L 75 89 L 75 82 L 76 81 L 76 33 L 75 32 L 43 32 L 42 31 L 44 29 L 45 29 L 50 24 L 51 24 L 57 18 L 57 15 L 51 15 L 47 19 L 46 19 L 45 20 L 44 19 L 44 12 L 42 10 Z" fill="orange" stroke="#d58c00" stroke-width="1" stroke-linejoin="round" stroke-linecap="round" />
</svg>
